<?xml version="1.0" encoding="UTF-8"?><svg xmlns="http://www.w3.org/2000/svg" width="13" height="13" viewBox="0 0 13 13"><path fill="#91979c" d="M9.4 3.13L6.97 6.08 4.55 3.13h-.43v.57h-.58v.57h-.57v.58h.57v1.14h-.57v.58H2.4V11h2.31V6.44l2.14 2.64h.19l2.14-2.64V11h2.37V3.13H9.4z"/><path fill="#91979c" d="M2.4 5.42h.57v.57H2.4zM1.066 1.244L1.581 1l.245.515-.514.245zM.88 0h.57v.57H.88zM3.176 2.923l.403-.403.403.403-.403.403zM2.198 2.273l.039-.568.569.039-.04.569zM2.501.854L3.06.74l.114.558-.559.114zM-.002 2.186l.18-.541.54.18-.18.54zM1.328 2.323l.56-.107.106.56-.56.107zM2.02 3.77l.264-.505.505.264-.264.505zM1.414 4.28l.557-.122.121.557-.557.122zM.84 3.26h.57v.57H.84z"/></svg>