<?xml version="1.0" encoding="utf-8"?>
<svg xmlns="http://www.w3.org/2000/svg" width="13" height="13" viewBox="0 0 13 13">
<path fill="none" stroke="#91979c" stroke-width="0.7" d="M9.402,3.13l-2.43,2.95l-2.42-2.95h-0.43V3.7h-0.58v0.57h-0.57v0.58h0.57
	v1.14h-0.57v0.58h-0.57V11h2.31V6.44l2.14,2.64h0.19l2.14-2.64V11h2.37V3.13H9.402z"/>
<path fill="#91979C" d="M2.402,5.42h0.57v0.57h-0.57V5.42z M1.068,1.244L1.583,1l0.245,0.515L1.314,1.76L1.068,1.244z M0.882,0h0.57
	v0.57h-0.57V0z M3.178,2.923L3.581,2.52l0.403,0.403L3.581,3.326L3.178,2.923z M2.2,2.273l0.039-0.568l0.569,0.039l-0.04,0.569
	L2.2,2.273z M2.503,0.854L3.062,0.74l0.114,0.558L2.617,1.412L2.503,0.854z M0,2.186l0.18-0.541l0.54,0.18l-0.18,0.54L0,2.186z
	 M1.33,2.323l0.56-0.107l0.106,0.56l-0.56,0.107L1.33,2.323z M2.022,3.77l0.264-0.505l0.505,0.264L2.527,4.034L2.022,3.77z
	 M1.416,4.28l0.557-0.122l0.121,0.557L1.537,4.837L1.416,4.28z M0.842,3.26h0.57v0.57h-0.57V3.26z"/>
</svg>
